PathFileType	4	(X/Y/Z)	/Users/niels/Desktop/University/Third Semester/Perception and Action/Exam/Gymnastics Motion Tracking/Analyzed Videos/7Nov24/Kraftspring/Sequence 01_Sports2D/Sequence 01_Sports2D_px_person01.trc
DataRate	CameraRate	NumFrames	NumMarkers	Units	OrigDataRate	OrigDataStartFrame	OrigNumFrames
49.85207100591716	49.85207100591716	22	22	m	49.85207100591716	295	338
Frame#	Time	Hip			RHip			RKnee			RAnkle			RBigToe			RSmallToe			RHeel			LHip			LKnee			LAnkle			LBigToe			LSmallToe			LHeel			Neck			Head			Nose			RShoulder			RElbow			RWrist			LShoulder			LElbow			LWrist		
		X1	Y1	Z1	X2	Y2	Z2	X3	Y3	Z3	X4	Y4	Z4	X5	Y5	Z5	X6	Y6	Z6	X7	Y7	Z7	X8	Y8	Z8	X9	Y9	Z9	X10	Y10	Z10	X11	Y11	Z11	X12	Y12	Z12	X13	Y13	Z13	X14	Y14	Z14	X15	Y15	Z15	X16	Y16	Z16	X17	Y17	Z17	X18	Y18	Z18	X19	Y19	Z19	X20	Y20	Z20	X21	Y21	Z21	X22	Y22	Z22
295	5.9175074183976255			0.0			0.0	1.9388720819597898	-0.5705387705833498	0.0			0.0			0.0			0.0			0.0			0.0			0.0			0.0			0.0			0.0			0.0	1.8157694478711808	-0.44231994435320116	0.0	1.8241756314873037	-0.3562145283078897	0.0	1.8641828637652438	-0.4085336756140079	0.0	1.8698522911114477	-0.4721802102760091	0.0	1.9145630020784732	-0.5234220975842537	0.0			0.0	1.7611165425461317	-0.4930343029771102	0.0	1.7701007299184892	-0.5815857135636266	0.0			0.0
296	5.937566765578635			0.0			0.0	1.9388753900477713	-0.5706424477247819	0.0			0.0			0.0			0.0			0.0			0.0			0.0			0.0			0.0			0.0			0.0	1.8156090836403564	-0.44241588553277694	0.0	1.8240035748701755	-0.3562945277617019	0.0	1.864018004166179	-0.40861284098398726	0.0	1.86971741790269	-0.4722715739936345	0.0	1.9145535869466423	-0.5232554840208291	0.0			0.0	1.7609458960770354	-0.4931394083765966	0.0	1.7699205305665222	-0.5817503567888903	0.0			0.0
297	5.957626112759644			0.0			0.0	1.9388788315932721	-0.5707595174854629	0.0			0.0			0.0			0.0			0.0			0.0			0.0			0.0			0.0			0.0			0.0	1.8154324202358811	-0.4425244912640279	0.0	1.8238158512997682	-0.3563800548399722	0.0	1.8638312275267923	-0.40870015421651673	0.0	1.869568066942384	-0.4723666371812078	0.0	1.9145459591833314	-0.5231675745464303	0.0			0.0	1.760766334881185	-0.49324909353801527	0.0	1.7697302509243131	-0.5819120942020177	0.0			0.0
298	5.977685459940652			0.0			0.0	1.9388818470750824	-0.5708771775734994	0.0			0.0			0.0			0.0			0.0			0.0			0.0			0.0			0.0			0.0			0.0	1.8152615293961665	-0.442634053907736	0.0	1.8236370774843336	-0.35645876082424904	0.0	1.8636425718795537	-0.40878477160681065	0.0	1.8694224060617493	-0.47244995381299965	0.0	1.9145428250503922	-0.5232304534465788	0.0			0.0	1.7606056781599246	-0.4933457557043941	0.0	1.769558924980048	-0.5820381713962272	0.0			0.0
299	5.997744807121661			0.0			0.0	1.9388835640719184	-0.5709735032151447	0.0			0.0			0.0			0.0			0.0			0.0			0.0			0.0			0.0			0.0			0.0	1.815132921151806	-0.4427244441676611	0.0	1.8235074963457814	-0.3565109009591459	0.0	1.8634865350168675	-0.4088487293923697	0.0	1.8693106891745674	-0.4724974371099063	0.0	1.9145479422963012	-0.5235383083728523	0.0			0.0	1.7605077351648262	-0.4934018757928495	0.0	1.7694524224065684	-0.5820795518938559	0.0			0.0
300	6.01780415430267			0.0			0.0	1.9388827426874689	-0.5710151895317378	0.0			0.0			0.0			0.0			0.0			0.0			0.0			0.0			0.0			0.0			0.0	1.8151007734561422	-0.4427650058064814	0.0	1.8234863339543683	-0.35650787799792905	0.0	1.8634157012968027	-0.40886534337670677	0.0	1.8692780182523068	-0.4724748514646404	0.0	1.9145661467162536	-0.5242051034233772	0.0			0.0	1.7605352410616042	-0.49337826425297077	0.0	1.7694765883777255	-0.5819687682543293	0.0			0.0
301	6.037863501483679			0.0			0.0	1.938877752337876	-0.5709558657296343	0.0			0.0			0.0			0.0			0.0			0.0			0.0			0.0			0.0			0.0			0.0	1.8152390802375447	-0.44271296740144267	0.0	1.8236539147597968	-0.3564114415117045	0.0	1.8635034869186402	-0.40879813794898145	0.0	1.8693862299907815	-0.47233716993643654	0.0	1.9146031927156093	-0.5253568595353753	0.0			0.0	1.7607712656032581	-0.49322328822552525	0.0	1.7697188004517321	-0.5816197602755405	0.0			0.0
302	6.057922848664688			0.0			0.0	1.9388666063822695	-0.5707357036381353	0.0			0.0			0.0			0.0			0.0			0.0			0.0			0.0			0.0			0.0			0.0	1.815641548793445	-0.44251303659975844	0.0	1.8241112595725988	-0.3561741565239959	0.0	1.8638448619889232	-0.40860088044252796	0.0	1.8697139328929777	-0.47202952850594593	0.0	1.9146653072425757	-0.5271162124863915	0.0			0.0	1.7613177522922079	-0.4928739173918309	0.0	1.7702865328284296	-0.5809311295480167	0.0			0.0
303	6.0779821958456965			0.0			0.0	1.9388470887315996	-0.5702833058993027	0.0			0.0			0.0			0.0			0.0			0.0			0.0			0.0			0.0			0.0			0.0	1.8164176819696864	-0.4420990861694505	0.0	1.8249754709591226	-0.3557419458559	0.0	1.864553488321125	-0.40821949225841714	0.0	1.87035338596937	-0.47149071972249185	0.0	1.9147583400514974	-0.5295767453887208	0.0			0.0	1.7622894458085117	-0.49225966995196807	0.0	1.771301094342958	-0.5797945968832003	0.0			0.0
304	6.098041543026706			0.0			0.0	1.9388170131317615	-0.5695211197413541	0.0			0.0			0.0			0.0			0.0			0.0			0.0			0.0			0.0			0.0			0.0	1.8176831038155554	-0.44139908394221306	0.0	1.8263688173650812	-0.35505968296451684	0.0	1.865753293771487	-0.407596794775032	0.0	1.8714025887955803	-0.4706603496536186	0.0	1.914886387530203	-0.5327647723694012	0.0			0.0	1.7638011149204362	-0.4913107506475308	0.0	1.772884332391869	-0.5781107186352584	0.0			0.0
305	6.118100890207715			0.0			0.0	1.9387746592682773	-0.5683758297614421	0.0			0.0			0.0			0.0			0.0			0.0			0.0			0.0			0.0			0.0			0.0	1.8195419140872349	-0.4403446136818929	0.0	1.8283991536722772	-0.35408092032732563	0.0	1.86756216727346	-0.40668118408648385	0.0	1.8729507144969135	-0.4694908775118926	0.0	1.915049780875359	-0.5365869976157916	0.0			0.0	1.7659457781634114	-0.4899717860610956	0.0	1.7751358766769743	-0.5758139867309707	0.0			0.0
306	6.138160237388724			0.0			0.0	1.9387194273378368	-0.566795260710809	0.0			0.0			0.0			0.0			0.0			0.0			0.0			0.0			0.0			0.0			0.0	1.8220588117845409	-0.438886410285243	0.0	1.8311292982444323	-0.3527828168766014	0.0	1.8700653248726773	-0.405440352641099	0.0	1.875054966193044	-0.46796568846420383	0.0	1.9152423732242807	-0.5407640467472359	0.0			0.0	1.7687617342501953	-0.48822248868145557	0.0	1.7780985853410443	-0.5729091509952463	0.0			0.0
307	6.158219584569732			0.0			0.0	1.9386527405618734	-0.5647731627438061	0.0			0.0			0.0			0.0			0.0			0.0			0.0			0.0			0.0			0.0			0.0	1.825224898600192	-0.4370147858110263	0.0	1.8345428022320376	-0.3511820423714948	0.0	1.8732811157118439	-0.4038783329830468	0.0	1.8777145800508652	-0.4661186598413539	0.0	1.9154500594228474	-0.5448134343903476	0.0			0.0	1.7721946014133447	-0.4861006840133692	0.0	1.7817211056642155	-0.569505488404814	0.0			0.0
308	6.178278931750741			0.0			0.0	1.938579311948283	-0.5623745997936129	0.0			0.0			0.0			0.0			0.0			0.0			0.0			0.0			0.0			0.0			0.0	1.8289371768581228	-0.43477573689266247	0.0	1.8385308477637199	-0.34933864399640485	0.0	1.8771339949763217	-0.40204641144129083	0.0	1.880858965943927	-0.4640390664384734	0.0	1.9156554789783513	-0.5482017115901249	0.0			0.0	1.7760830514358028	-0.48370774546464673	0.0	1.78584796330987	-0.5658118807484132	0.0			0.0
309	6.19833827893175			0.0			0.0	1.938507704278367	-0.5597387606307829	0.0			0.0			0.0			0.0			0.0			0.0			0.0			0.0			0.0			0.0			0.0	1.8330114931533388	-0.43227080286115704	0.0	1.8429106252616287	-0.3473436475805204	0.0	1.881451546991719	-0.4000376671574827	0.0	1.8843545535375485	-0.46185173437550947	0.0	1.9158473462589474	-0.5505904616391228	0.0			0.0	1.7801939920511756	-0.4811821247084815	0.0	1.7902533867916606	-0.5620816736673417	0.0			0.0
310	6.218397626112759			0.0			0.0	1.938447456842473	-0.5570523034984408	0.0			0.0			0.0			0.0			0.0			0.0			0.0			0.0			0.0			0.0			0.0	1.837211102234076	-0.4296460322132416	0.0	1.847443658019183	-0.34530785905216155	0.0	1.8859801704623682	-0.3979724264567728	0.0	1.888009906694378	-0.4596907791868117	0.0	1.9160223390506927	-0.5519357999321041	0.0			0.0	1.7842755946284368	-0.4786687582308029	0.0	1.7946817785303346	-0.5585551067589656	0.0			0.0
311	6.2384569732937685			0.0			0.0	1.9384039459418334	-0.5545151634713602	0.0			0.0			0.0			0.0			0.0			0.0			0.0			0.0			0.0			0.0			0.0	1.8412645457151908	-0.4270806408097512	0.0	1.8518397239792548	-0.34335944287852554	0.0	1.8904070610846468	-0.3959872718185034	0.0	1.8915784554571524	-0.4576866294620105	0.0	1.9161775802072554	-0.5524111913944464	0.0			0.0	1.78808187962246	-0.47631288656502796	0.0	1.798863266804222	-0.5554334326831266	0.0			0.0
312	6.258516320474777			0.0			0.0	1.93837676709521	-0.552301175341362	0.0			0.0			0.0			0.0			0.0			0.0			0.0			0.0			0.0			0.0			0.0	1.844901232299511	-0.4247582380186952	0.0	1.8557971656262697	-0.3416264916115885	0.0	1.8944133641297156	-0.3942152591607784	0.0	1.894801041303442	-0.45595215149610235	0.0	1.9163074295193863	-0.5522840921746611	0.0			0.0	1.7913951964936505	-0.47425018937388635	0.0	1.8025435102206744	-0.5528583498079886	0.0			0.0
313	6.278575667655786			0.0			0.0	1.9383625058485456	-0.5505149519077268	0.0			0.0			0.0			0.0			0.0			0.0			0.0			0.0			0.0			0.0			0.0	1.847922808202758	-0.42281538718239475	0.0	1.859092043265405	-0.34019953360211175	0.0	1.8977632448742334	-0.39275074492865797	0.0	1.897487244923961	-0.45455725107350686	0.0	1.91640803733407	-0.5518122861971628	0.0			0.0	1.79407509245788	-0.47257263660184834	0.0	1.8055490559664926	-0.5508857797465843	0.0			0.0
314	6.298635014836795			0.0			0.0	1.9383574154530159	-0.5491788469774367	0.0			0.0			0.0			0.0			0.0			0.0			0.0			0.0			0.0			0.0			0.0	1.8502508625475547	-0.4213092415901567	0.0	1.861634803425324	-0.3391098873907812	0.0	1.9003587675733893	-0.3916282480200125	0.0	1.8995616261505577	-0.45351589292110034	0.0	1.916480102548662	-0.5511913576766149	0.0			0.0	1.7960872749741046	-0.47130624976645563	0.0	1.8078268342670196	-0.5494872725125972	0.0			0.0
315	6.318694362017804			0.0			0.0	1.9383582748774149	-0.5482558196429184	0.0			0.0			0.0			0.0			0.0			0.0			0.0			0.0			0.0			0.0			0.0	1.851912439389702	-0.4202272502634725	0.0	1.8634527683807096	-0.3383396451950083	0.0	1.9022223002280036	-0.39083157774236504	0.0	1.9010457497996458	-0.4527980835879244	0.0	1.916527384675541	-0.5505521019284132	0.0			0.0	1.7974833277317452	-0.4704223091879635	0.0	1.8094236382029194	-0.5485815422647028	0.0			0.0
316	6.338753709198812			0.0			0.0	1.9383625305931362	-0.5476780968818304	0.0			0.0			0.0			0.0			0.0			0.0			0.0			0.0			0.0			0.0			0.0	1.852997683058571	-0.4195147794235169	0.0	1.8646427446245362	-0.337842702495392	0.0	1.9034485433574053	-0.3903149216396174	0.0	1.902018050449087	-0.45235016334671757	0.0	1.9165548520506117	-0.5499733276462639	0.0			0.0	1.798362187143563	-0.46986133926356777	0.0	1.8104428187089008	-0.5480659661377631	0.0			0.0
